<svg width="400" height="200" viewBox="0 0 400 200" xmlns="http://www.w3.org/2000/svg">
  <defs>
    <!-- グラデーション定義 -->
    <linearGradient id="redGradient" x1="0%" y1="0%" x2="100%" y2="100%">
      <stop offset="0%" style="stop-color:#ff0000;stop-opacity:1" />
      <stop offset="50%" style="stop-color:#cc0000;stop-opacity:1" />
      <stop offset="100%" style="stop-color:#800000;stop-opacity:1" />
    </linearGradient>
    
    <linearGradient id="glowGradient" x1="0%" y1="0%" x2="100%" y2="100%">
      <stop offset="0%" style="stop-color:#ffffff;stop-opacity:0.8" />
      <stop offset="100%" style="stop-color:#ff0000;stop-opacity:0.3" />
    </linearGradient>
    
    <!-- フィルター効果 -->
    <filter id="glow">
      <feGaussianBlur stdDeviation="3" result="coloredBlur"/>
      <feMerge> 
        <feMergeNode in="coloredBlur"/>
        <feMergeNode in="SourceGraphic"/>
      </feMerge>
    </filter>
  </defs>
  
  <!-- 背景 -->
  <rect width="400" height="200" fill="#000000"/>
  
  <!-- 中央の分割線 -->
  <line x1="200" y1="0" x2="200" y2="200" stroke="#ff0000" stroke-width="2" filter="url(#glow)"/>
  
  <!-- 左側：車 -->
  <g transform="translate(20, 40)">
    <!-- ボンネット -->
    <path d="M 20 80 L 80 60 L 120 50 L 140 45 L 160 50 L 180 60 L 200 80" 
          stroke="url(#redGradient)" stroke-width="2" fill="none" filter="url(#glow)"/>
    
    <!-- フロントガラス -->
    <path d="M 140 45 L 160 50 L 160 70 L 140 75" 
          stroke="url(#redGradient)" stroke-width="2" fill="none" filter="url(#glow)"/>
    
    <!-- ヘッドライト（左） -->
    <ellipse cx="60" cy="70" rx="8" ry="12" stroke="url(#redGradient)" stroke-width="2" fill="none" filter="url(#glow)"/>
    <ellipse cx="60" cy="70" rx="4" ry="6" fill="url(#glowGradient)" filter="url(#glow)"/>
    
    <!-- ヘッドライト（右） -->
    <ellipse cx="140" cy="70" rx="8" ry="12" stroke="url(#redGradient)" stroke-width="2" fill="none" filter="url(#glow)"/>
    <ellipse cx="140" cy="70" rx="4" ry="6" fill="url(#glowGradient)" filter="url(#glow)"/>
    
    <!-- キドニーグリル（左） -->
    <rect x="50" y="75" width="20" height="15" stroke="url(#redGradient)" stroke-width="2" fill="none" filter="url(#glow)"/>
    <line x1="55" y1="75" x2="55" y2="90" stroke="url(#redGradient)" stroke-width="1" filter="url(#glow)"/>
    <line x1="60" y1="75" x2="60" y2="90" stroke="url(#redGradient)" stroke-width="1" filter="url(#glow)"/>
    <line x1="65" y1="75" x2="65" y2="90" stroke="url(#redGradient)" stroke-width="1" filter="url(#glow)"/>
    
    <!-- キドニーグリル（右） -->
    <rect x="130" y="75" width="20" height="15" stroke="url(#redGradient)" stroke-width="2" fill="none" filter="url(#glow)"/>
    <line x1="135" y1="75" x2="135" y2="90" stroke="url(#redGradient)" stroke-width="1" filter="url(#glow)"/>
    <line x1="140" y1="75" x2="140" y2="90" stroke="url(#redGradient)" stroke-width="1" filter="url(#glow)"/>
    <line x1="145" y1="75" x2="145" y2="90" stroke="url(#redGradient)" stroke-width="1" filter="url(#glow)"/>
    
    <!-- バンパー -->
    <path d="M 30 90 L 170 90 L 180 95 L 180 100 L 20 100 Z" 
          stroke="url(#redGradient)" stroke-width="2" fill="none" filter="url(#glow)"/>
    
    <!-- エアインテーク -->
    <path d="M 70 95 L 130 95 L 135 100 L 65 100 Z" 
          stroke="url(#redGradient)" stroke-width="2" fill="none" filter="url(#glow)"/>
  </g>
  
  <!-- 右側：バイク -->
  <g transform="translate(220, 30)">
    <!-- フェアリング -->
    <path d="M 20 100 L 40 80 L 60 60 L 80 50 L 100 45 L 120 50 L 140 60 L 160 80 L 180 100" 
          stroke="url(#redGradient)" stroke-width="2" fill="none" filter="url(#glow)"/>
    
    <!-- ヘッドライト -->
    <ellipse cx="100" cy="55" rx="12" ry="8" stroke="url(#redGradient)" stroke-width="2" fill="none" filter="url(#glow)"/>
    <ellipse cx="100" cy="55" rx="6" ry="4" fill="url(#glowGradient)" filter="url(#glow)"/>
    
    <!-- フェアリングの詳細 -->
    <path d="M 60 60 L 80 50 L 120 50 L 140 60" 
          stroke="url(#redGradient)" stroke-width="1" fill="none" filter="url(#glow)"/>
    
    <!-- 前輪 -->
    <circle cx="100" cy="120" r="25" stroke="url(#redGradient)" stroke-width="2" fill="none" filter="url(#glow)"/>
    <circle cx="100" cy="120" r="20" stroke="url(#redGradient)" stroke-width="1" fill="none" filter="url(#glow)"/>
    <circle cx="100" cy="120" r="15" stroke="url(#redGradient)" stroke-width="1" fill="none" filter="url(#glow)"/>
    
    <!-- タイヤのトレッド -->
    <path d="M 75 120 L 85 120 M 115 120 L 125 120" 
          stroke="url(#redGradient)" stroke-width="2" filter="url(#glow)"/>
    
    <!-- ハンドルバー -->
    <line x1="80" y1="70" x2="120" y2="70" stroke="url(#redGradient)" stroke-width="2" filter="url(#glow)"/>
    
    <!-- ミラー -->
    <ellipse cx="85" cy="65" rx="3" ry="8" stroke="url(#redGradient)" stroke-width="1" fill="none" filter="url(#glow)"/>
    <ellipse cx="115" cy="65" rx="3" ry="8" stroke="url(#redGradient)" stroke-width="1" fill="none" filter="url(#glow)"/>
    
    <!-- フロントフォーク -->
    <line x1="100" y1="80" x2="100" y2="95" stroke="url(#redGradient)" stroke-width="2" filter="url(#glow)"/>
  </g>
  
  <!-- 光る効果の追加 -->
  <circle cx="200" cy="100" r="150" fill="none" stroke="url(#glowGradient)" stroke-width="1" opacity="0.3">
    <animate attributeName="r" values="150;160;150" dur="3s" repeatCount="indefinite"/>
    <animate attributeName="opacity" values="0.3;0.1;0.3" dur="3s" repeatCount="indefinite"/>
  </circle>
</svg>
