<svg viewBox="0 0 400 200" xmlns="http://www.w3.org/2000/svg">
  <!-- 背景 -->
  <rect width="400" height="200" fill="#000000"/>
  
  <!-- 中央の分割線 -->
  <line x1="200" y1="0" x2="200" y2="200" stroke="#ff6b35" stroke-width="2" opacity="0.8"/>
  
  <!-- 左側：車 -->
  <g>
    <!-- 車のボディ - より詳細な形状 -->
    <path d="M30 140 L50 140 L60 130 L80 130 L90 120 L130 120 L140 130 L160 130 L170 140 L190 140 L190 150 L30 150 Z" 
          fill="url(#carGradient)" stroke="#ff6b35" stroke-width="2"/>
    
    <!-- 車のボディ上部 -->
    <path d="M60 130 L80 130 L90 120 L130 120 L140 130 L160 130" 
          fill="url(#carGradient)" stroke="#ff6b35" stroke-width="1"/>
    
    <!-- ヘッドライト - より詳細 -->
    <ellipse cx="50" cy="135" rx="10" ry="5" fill="url(#headlightGradient)" stroke="#ff6b35" stroke-width="1"/>
    <ellipse cx="150" cy="135" rx="10" ry="5" fill="url(#headlightGradient)" stroke="#ff6b35" stroke-width="1"/>
    
    <!-- ヘッドライト内部の光 -->
    <ellipse cx="50" cy="135" rx="6" ry="3" fill="#ffffff" opacity="0.9"/>
    <ellipse cx="150" cy="135" rx="6" ry="3" fill="#ffffff" opacity="0.9"/>
    
    <!-- フロントガラス -->
    <path d="M70 130 L80 125 L120 125 L130 130" fill="none" stroke="#ff6b35" stroke-width="1.5"/>
    
    <!-- サイドウィンドウ -->
    <path d="M80 130 L90 125 L120 125 L130 130" fill="url(#windowGradient)" stroke="#ff6b35" stroke-width="1"/>
    
    <!-- タイヤ - より詳細 -->
    <circle cx="50" cy="150" r="12" fill="none" stroke="#ff6b35" stroke-width="2"/>
    <circle cx="150" cy="150" r="12" fill="none" stroke="#ff6b35" stroke-width="2"/>
    
    <!-- タイヤのホイール -->
    <circle cx="50" cy="150" r="6" fill="url(#wheelGradient)" stroke="#ff6b35" stroke-width="1"/>
    <circle cx="150" cy="150" r="6" fill="url(#wheelGradient)" stroke="#ff6b35" stroke-width="1"/>
    
    <!-- タイヤのトレッドパターン -->
    <path d="M38 150 L42 150 M58 150 L62 150" stroke="#ff6b35" stroke-width="1"/>
    <path d="M138 150 L142 150 M158 150 L162 150" stroke="#ff6b35" stroke-width="1"/>
    
    <!-- バンパー -->
    <path d="M30 140 L50 140" stroke="#ff6b35" stroke-width="3"/>
    <path d="M150 140 L170 140" stroke="#ff6b35" stroke-width="3"/>
  </g>
  
  <!-- 右側：バイク -->
  <g>
    <!-- バイクのボディ - より詳細な形状 -->
    <path d="M220 140 L240 140 L250 130 L270 130 L280 120 L320 120 L330 130 L350 130 L360 140 L380 140 L380 150 L220 150 Z" 
          fill="url(#bikeGradient)" stroke="#ff6b35" stroke-width="2"/>
    
    <!-- バイクのボディ上部 -->
    <path d="M250 130 L270 130 L280 120 L320 120 L330 130 L350 130" 
          fill="url(#bikeGradient)" stroke="#ff6b35" stroke-width="1"/>
    
    <!-- ヘッドライト - より詳細 -->
    <ellipse cx="240" cy="135" rx="8" ry="4" fill="url(#headlightGradient)" stroke="#ff6b35" stroke-width="1"/>
    <ellipse cx="240" cy="135" rx="5" ry="2.5" fill="#ffffff" opacity="0.9"/>
    
    <!-- フェアリング -->
    <path d="M230 130 L240 125 L260 125 L270 130" fill="none" stroke="#ff6b35" stroke-width="1.5"/>
    
    <!-- フェアリングの詳細 -->
    <path d="M235 130 L240 128 L260 128 L265 130" fill="url(#fairingGradient)" stroke="#ff6b35" stroke-width="1"/>
    
    <!-- フロントタイヤ -->
    <circle cx="240" cy="150" r="12" fill="none" stroke="#ff6b35" stroke-width="2"/>
    <circle cx="360" cy="150" r="12" fill="none" stroke="#ff6b35" stroke-width="2"/>
    
    <!-- タイヤのホイール -->
    <circle cx="240" cy="150" r="6" fill="url(#wheelGradient)" stroke="#ff6b35" stroke-width="1"/>
    <circle cx="360" cy="150" r="6" fill="url(#wheelGradient)" stroke="#ff6b35" stroke-width="1"/>
    
    <!-- タイヤのトレッドパターン -->
    <path d="M228 150 L232 150 M248 150 L252 150" stroke="#ff6b35" stroke-width="1"/>
    <path d="M348 150 L352 150 M368 150 L372 150" stroke="#ff6b35" stroke-width="1"/>
    
    <!-- ハンドルバー -->
    <line x1="230" y1="135" x2="230" y2="145" stroke="#ff6b35" stroke-width="2"/>
    <line x1="230" y1="135" x2="235" y2="135" stroke="#ff6b35" stroke-width="2"/>
    
    <!-- ミラー -->
    <ellipse cx="235" cy="130" rx="3" ry="6" fill="url(#mirrorGradient)" stroke="#ff6b35" stroke-width="1"/>
    
    <!-- エンジン部分 -->
    <ellipse cx="300" cy="140" rx="15" ry="8" fill="url(#engineGradient)" stroke="#ff6b35" stroke-width="1"/>
    
    <!-- 排気管 -->
    <path d="M300 140 L310 145 L320 145" stroke="#ff6b35" stroke-width="2" fill="none"/>
  </g>
  
  <!-- グラデーション定義 -->
  <defs>
    <linearGradient id="carGradient" x1="0%" y1="0%" x2="100%" y2="100%">
      <stop offset="0%" stop-color="#ff6b35" stop-opacity="0.9"/>
      <stop offset="50%" stop-color="#ff6b35" stop-opacity="0.7"/>
      <stop offset="100%" stop-color="#1a1a1a" stop-opacity="0.9"/>
    </linearGradient>
    <linearGradient id="bikeGradient" x1="0%" y1="0%" x2="100%" y2="100%">
      <stop offset="0%" stop-color="#ff6b35" stop-opacity="0.9"/>
      <stop offset="50%" stop-color="#ff6b35" stop-opacity="0.7"/>
      <stop offset="100%" stop-color="#1a1a1a" stop-opacity="0.9"/>
    </linearGradient>
    <linearGradient id="headlightGradient" x1="0%" y1="0%" x2="100%" y2="100%">
      <stop offset="0%" stop-color="#ffffff" stop-opacity="0.95"/>
      <stop offset="100%" stop-color="#ff6b35" stop-opacity="0.4"/>
    </linearGradient>
    <linearGradient id="windowGradient" x1="0%" y1="0%" x2="100%" y2="100%">
      <stop offset="0%" stop-color="#ffffff" stop-opacity="0.3"/>
      <stop offset="100%" stop-color="#ff6b35" stop-opacity="0.1"/>
    </linearGradient>
    <linearGradient id="wheelGradient" x1="0%" y1="0%" x2="100%" y2="100%">
      <stop offset="0%" stop-color="#333333"/>
      <stop offset="100%" stop-color="#1a1a1a"/>
    </linearGradient>
    <linearGradient id="fairingGradient" x1="0%" y1="0%" x2="100%" y2="100%">
      <stop offset="0%" stop-color="#ff6b35" stop-opacity="0.6"/>
      <stop offset="100%" stop-color="#1a1a1a" stop-opacity="0.8"/>
    </linearGradient>
    <linearGradient id="mirrorGradient" x1="0%" y1="0%" x2="100%" y2="100%">
      <stop offset="0%" stop-color="#ffffff" stop-opacity="0.8"/>
      <stop offset="100%" stop-color="#ff6b35" stop-opacity="0.3"/>
    </linearGradient>
    <linearGradient id="engineGradient" x1="0%" y1="0%" x2="100%" y2="100%">
      <stop offset="0%" stop-color="#ff6b35" stop-opacity="0.8"/>
      <stop offset="100%" stop-color="#1a1a1a" stop-opacity="0.9"/>
    </linearGradient>
  </defs>
</svg>
