<svg width="32" height="32" viewBox="0 0 32 32" xmlns="http://www.w3.org/2000/svg">
  <defs>
    <!-- グラデーション定義 -->
    <linearGradient id="redGradient" x1="0%" y1="0%" x2="100%" y2="100%">
      <stop offset="0%" style="stop-color:#ff0000;stop-opacity:1" />
      <stop offset="50%" style="stop-color:#cc0000;stop-opacity:1" />
      <stop offset="100%" style="stop-color:#800000;stop-opacity:1" />
    </linearGradient>
    
    <linearGradient id="glowGradient" x1="0%" y1="0%" x2="100%" y2="100%">
      <stop offset="0%" style="stop-color:#ffffff;stop-opacity:0.8" />
      <stop offset="100%" style="stop-color:#ff0000;stop-opacity:0.3" />
    </linearGradient>
    
    <!-- フィルター効果 -->
    <filter id="glow">
      <feGaussianBlur stdDeviation="1" result="coloredBlur"/>
      <feMerge> 
        <feMergeNode in="coloredBlur"/>
        <feMergeNode in="SourceGraphic"/>
      </feMerge>
    </filter>
  </defs>
  
  <!-- 背景 -->
  <rect width="32" height="32" fill="#000000"/>
  
  <!-- 中央の分割線 -->
  <line x1="16" y1="0" x2="16" y2="32" stroke="#ff0000" stroke-width="1" filter="url(#glow)"/>
  
  <!-- 左側：車 -->
  <g transform="translate(2, 8)">
    <!-- ボンネット -->
    <path d="M 2 12 L 6 10 L 8 9 L 9 8.5 L 10 9 L 12 10 L 14 12" 
          stroke="url(#redGradient)" stroke-width="1" fill="none" filter="url(#glow)"/>
    
    <!-- ヘッドライト（左） -->
    <ellipse cx="5" cy="11" rx="1" ry="1.5" stroke="url(#redGradient)" stroke-width="0.5" fill="none" filter="url(#glow)"/>
    <ellipse cx="5" cy="11" rx="0.5" ry="0.8" fill="url(#glowGradient)" filter="url(#glow)"/>
    
    <!-- ヘッドライト（右） -->
    <ellipse cx="11" cy="11" rx="1" ry="1.5" stroke="url(#redGradient)" stroke-width="0.5" fill="none" filter="url(#glow)"/>
    <ellipse cx="11" cy="11" rx="0.5" ry="0.8" fill="url(#glowGradient)" filter="url(#glow)"/>
    
    <!-- キドニーグリル -->
    <rect x="4" y="12" width="2" height="1.5" stroke="url(#redGradient)" stroke-width="0.5" fill="none" filter="url(#glow)"/>
    <rect x="10" y="12" width="2" height="1.5" stroke="url(#redGradient)" stroke-width="0.5" fill="none" filter="url(#glow)"/>
  </g>
  
  <!-- 右側：バイク -->
  <g transform="translate(18, 6)">
    <!-- フェアリング -->
    <path d="M 2 14 L 3 12 L 4 10 L 5 9 L 6 8.5 L 7 9 L 8 10 L 9 12 L 10 14" 
          stroke="url(#redGradient)" stroke-width="1" fill="none" filter="url(#glow)"/>
    
    <!-- ヘッドライト -->
    <ellipse cx="6" cy="9" rx="1.5" ry="1" stroke="url(#redGradient)" stroke-width="0.5" fill="none" filter="url(#glow)"/>
    <ellipse cx="6" cy="9" rx="0.8" ry="0.5" fill="url(#glowGradient)" filter="url(#glow)"/>
    
    <!-- 前輪 -->
    <circle cx="6" cy="16" r="3" stroke="url(#redGradient)" stroke-width="1" fill="none" filter="url(#glow)"/>
    
    <!-- ハンドルバー -->
    <line x1="4" y1="11" x2="8" y2="11" stroke="url(#redGradient)" stroke-width="1" filter="url(#glow)"/>
  </g>
</svg>
